<svg width="78" height="47" viewBox="0 0 78 47" fill="none" xmlns="http://www.w3.org/2000/svg">
<path d="M7.7757 45.5L8.17923 38.0714C3.2559 36.1793 1.57422 31.7033 1.49999 27.5C1.42577 23.2967 2.96406 19.652 7.7757 15.2194C12.5873 10.7868 19.2717 6.98381 26.586 4.51749C33.9002 2.05118 40.3059 1.77847 46.5 2.5C52.6941 3.22153 56.4402 6.448 58.4461 10C60.4519 13.552 60.1758 18.3769 57 23C53.8242 27.6231 49.7796 30.1701 42.9951 33.5745C36.2106 36.9789 23.5328 39.5006 16.5 40L7.7757 45.5Z" stroke="#161616" stroke-width="2.5" stroke-linecap="round" stroke-linejoin="round"/>
<path d="M20.0836 22.1629L17.5876 23.0714C17.3674 22.688 17.1042 22.3731 16.7979 22.1269C16.4899 21.8761 16.1531 21.6914 15.7874 21.5726C15.4217 21.4537 15.0361 21.4051 14.6308 21.4267C14.2283 21.4421 13.818 21.526 13.3997 21.6782C12.6567 21.9487 12.0662 22.3752 11.6283 22.9579C11.1887 23.5361 10.9369 24.2424 10.8728 25.077C10.8071 25.9071 10.9613 26.836 11.3354 27.8638C11.716 28.9094 12.199 29.7313 12.7846 30.3294C13.3729 30.9214 14.0182 31.2962 14.7205 31.4538C15.4257 31.6053 16.1475 31.5466 16.8861 31.2778C17.2955 31.1288 17.6587 30.9362 17.9757 30.6998C18.2956 30.4574 18.5591 30.1776 18.7661 29.8604C18.9776 29.5416 19.1246 29.1908 19.207 28.8081C19.2938 28.4238 19.3022 28.0176 19.2321 27.5897L21.733 26.6945C21.876 27.3781 21.8954 28.0614 21.7913 28.7442C21.6915 29.4255 21.4719 30.0748 21.1322 30.6922C20.791 31.3052 20.3312 31.8555 19.7529 32.3431C19.173 32.8263 18.4759 33.216 17.6616 33.5124C16.4603 33.9496 15.2868 34.0618 14.1412 33.849C12.9955 33.6361 11.9601 33.1035 11.0351 32.251C10.1102 31.3985 9.38045 30.2382 8.84604 28.7699C8.31002 27.2972 8.12536 25.9384 8.29206 24.6937C8.45714 23.4444 8.91009 22.3701 9.65092 21.4706C10.3917 20.5711 11.3584 19.9044 12.5508 19.4704C13.3116 19.1935 14.0579 19.0428 14.7897 19.0183C15.5215 18.9938 16.2185 19.0953 16.8808 19.3229C17.5414 19.546 18.1449 19.8957 18.6911 20.3721C19.2402 20.8424 19.7044 21.4393 20.0836 22.1629ZM25.7704 23.5471L27.9566 29.5537L25.5406 30.433L20.5658 16.7648L22.9284 15.9049L24.8061 21.0638L24.9262 21.0201C24.956 20.3542 25.1615 19.763 25.5428 19.2463C25.9269 18.7235 26.5106 18.3196 27.2936 18.0346C28.0055 17.7755 28.6805 17.6987 29.3184 17.804C29.9564 17.9094 30.5244 18.1965 31.0225 18.6652C31.5251 19.1323 31.927 19.7796 32.2282 20.6072L34.6039 27.1343L32.1879 28.0136L29.9482 21.8602C29.6972 21.1706 29.3241 20.6992 28.8289 20.4461C28.3365 20.187 27.7722 20.1732 27.136 20.4048C26.7088 20.5602 26.3602 20.7929 26.0901 21.1029C25.8228 21.4068 25.6566 21.767 25.5916 22.1837C25.531 22.5988 25.5906 23.0533 25.7704 23.5471ZM40.0917 25.3712C39.4421 25.6076 38.815 25.7049 38.2102 25.663C37.6082 25.615 37.0726 25.417 36.6032 25.0688C36.1383 24.719 35.7836 24.2082 35.5391 23.5364C35.3286 22.958 35.2613 22.4408 35.3372 21.9849C35.4131 21.5289 35.5944 21.1203 35.8811 20.759C36.1678 20.3977 36.5215 20.075 36.9421 19.7909C37.3655 19.5007 37.8167 19.2382 38.2956 19.0034C38.8736 18.7225 39.3405 18.4896 39.6965 18.3046C40.0508 18.1152 40.293 17.9363 40.4232 17.768C40.5563 17.5936 40.5807 17.3907 40.4965 17.1594L40.4819 17.1193C40.2989 16.6166 40.0082 16.2815 39.6097 16.1141C39.2111 15.9468 38.7316 15.9651 38.171 16.1692C37.5792 16.3846 37.1568 16.6844 36.9037 17.0688C36.655 17.4516 36.5346 17.8406 36.5424 18.2358L34.17 18.7365C34.1212 18.0488 34.2254 17.4213 34.4825 16.8541C34.738 16.2824 35.1236 15.7844 35.6392 15.3599C36.1532 14.9309 36.7684 14.5861 37.4848 14.3254C37.9786 14.1456 38.4913 14.0245 39.0229 13.962C39.5544 13.8996 40.0712 13.9282 40.5732 14.0477C41.0737 14.1629 41.5288 14.4028 41.9387 14.7676C42.3531 15.1307 42.6841 15.6527 42.9319 16.3334L45.429 23.1943L43.1065 24.0396L42.5939 22.6314L42.5139 22.6605C42.4707 22.9987 42.3609 23.341 42.1847 23.6873C42.0112 24.0276 41.7518 24.3462 41.4064 24.6432C41.0639 24.9342 40.6257 25.1768 40.0917 25.3712ZM40.073 23.3676C40.5579 23.191 40.9436 22.9423 41.2299 22.6215C41.5146 22.2961 41.6943 21.9385 41.769 21.5485C41.8482 21.1569 41.8189 20.772 41.6813 20.3938L41.2416 19.1858C41.1886 19.2757 41.0807 19.3805 40.9177 19.5002C40.7591 19.6184 40.5759 19.738 40.368 19.859C40.1601 19.98 39.9529 20.0958 39.7462 20.2063C39.5395 20.3168 39.3601 20.4123 39.208 20.4928C38.8655 20.673 38.572 20.8705 38.3278 21.0853C38.0835 21.3002 37.9155 21.5377 37.8237 21.7978C37.7304 22.0535 37.7404 22.3371 37.8537 22.6486C38.0157 23.0935 38.3003 23.3703 38.7077 23.479C39.1151 23.5877 39.5702 23.5505 40.073 23.3676ZM49.2461 10.1957L49.9263 12.0644L44.0332 14.2093L43.353 12.3406L49.2461 10.1957ZM43.914 9.35507L46.33 8.47573L49.8328 18.0996C49.951 18.4244 50.0906 18.6557 50.2517 18.7936C50.4156 18.9254 50.5911 18.9925 50.7784 18.9949C50.9657 18.9973 51.1595 18.962 51.3597 18.8892C51.511 18.8341 51.6449 18.7728 51.7614 18.7052C51.8823 18.636 51.9729 18.5803 52.0331 18.5382L53.1277 20.2788C53.0149 20.3702 52.848 20.4864 52.6272 20.6272C52.4108 20.7665 52.133 20.9029 51.7936 21.0365C51.195 21.2745 50.6167 21.3817 50.0589 21.358C49.4994 21.3298 48.9996 21.154 48.5594 20.8305C48.1236 20.5054 47.7913 20.0217 47.5626 19.3794L43.914 9.35507Z" fill="#161616"/>
<path d="M63.5435 27.2805L61.0414 27.7237C60.9367 27.4036 60.7705 27.099 60.5428 26.8097C60.3212 26.5204 60.0196 26.2834 59.638 26.0987C59.2563 25.9141 58.7793 25.8217 58.2069 25.8217C57.4251 25.8217 56.7727 25.9972 56.2495 26.348C55.7263 26.6927 55.4647 27.139 55.4647 27.6868C55.4647 28.1607 55.6401 28.5424 55.9909 28.8317C56.3418 29.121 56.9081 29.358 57.6898 29.5426L59.9426 30.0597C61.2476 30.3613 62.2201 30.826 62.8603 31.4538C63.5004 32.0817 63.8205 32.8973 63.8205 33.9006C63.8205 34.75 63.5743 35.5071 63.0819 36.1719C62.5956 36.8305 61.9154 37.3475 61.0414 37.723C60.1735 38.0985 59.1671 38.2862 58.0222 38.2862C56.4341 38.2862 55.1384 37.9477 54.1351 37.2706C53.1318 36.5874 52.5163 35.6179 52.2885 34.3622L54.9569 33.956C55.123 34.6515 55.4647 35.1778 55.9817 35.5348C56.4988 35.8857 57.1728 36.0611 58.0037 36.0611C58.9086 36.0611 59.6318 35.8733 60.1735 35.4979C60.7151 35.1162 60.986 34.6515 60.986 34.1037C60.986 33.6605 60.8198 33.2881 60.4874 32.9865C60.1612 32.6849 59.6595 32.4571 58.9824 32.3033L56.5819 31.777C55.2585 31.4754 54.2798 30.9953 53.6458 30.3366C53.0179 29.678 52.704 28.844 52.704 27.8345C52.704 26.9974 52.9379 26.2649 53.4057 25.6371C53.8735 25.0092 54.5198 24.5199 55.3446 24.169C56.1694 23.812 57.1143 23.6335 58.1792 23.6335C59.7118 23.6335 60.9183 23.9659 61.7985 24.6307C62.6787 25.2893 63.2604 26.1726 63.5435 27.2805ZM77.483 27.2805L74.9808 27.7237C74.8762 27.4036 74.71 27.099 74.4822 26.8097C74.2607 26.5204 73.959 26.2834 73.5774 26.0987C73.1958 25.9141 72.7188 25.8217 72.1463 25.8217C71.3646 25.8217 70.7121 25.9972 70.1889 26.348C69.6657 26.6927 69.4041 27.139 69.4041 27.6868C69.4041 28.1607 69.5795 28.5424 69.9304 28.8317C70.2813 29.121 70.8475 29.358 71.6293 29.5426L73.8821 30.0597C75.187 30.3613 76.1596 30.826 76.7997 31.4538C77.4399 32.0817 77.7599 32.8973 77.7599 33.9006C77.7599 34.75 77.5137 35.5071 77.0213 36.1719C76.535 36.8305 75.8549 37.3475 74.9808 37.723C74.1129 38.0985 73.1065 38.2862 71.9616 38.2862C70.3736 38.2862 69.0779 37.9477 68.0746 37.2706C67.0713 36.5874 66.4557 35.6179 66.228 34.3622L68.8963 33.956C69.0625 34.6515 69.4041 35.1778 69.9212 35.5348C70.4382 35.8857 71.1122 36.0611 71.9432 36.0611C72.848 36.0611 73.5713 35.8733 74.1129 35.4979C74.6546 35.1162 74.9254 34.6515 74.9254 34.1037C74.9254 33.6605 74.7592 33.2881 74.4268 32.9865C74.1006 32.6849 73.599 32.4571 72.9219 32.3033L70.5213 31.777C69.1979 31.4754 68.2192 30.9953 67.5852 30.3366C66.9574 29.678 66.6435 28.844 66.6435 27.8345C66.6435 26.9974 66.8774 26.2649 67.3452 25.6371C67.813 25.0092 68.4593 24.5199 69.2841 24.169C70.1089 23.812 71.0537 23.6335 72.1186 23.6335C73.6513 23.6335 74.8577 23.9659 75.7379 24.6307C76.6181 25.2893 77.1998 26.1726 77.483 27.2805Z" fill="#161616"/>
</svg>
